<svg xmlns="http://www.w3.org/2000/svg" viewBox="0 0 1000 430">
  <desc>World land geometry from the public-domain Natural Earth 1:110m dataset.</desc>
  <path d="M311.8 398L319.3 400.5L318.1 401.9L315.4 402.1L314 401L310.7 403.1L307.7 402.8L299.3 399.9L292.6 395.1L302.5 398.7L304.8 395.4L307.4 394.2L309.3 394.6ZM337.4 390.2L339.6 391.4L338.8 392.4L335 393.3L333.8 392.3L331.4 393.6L330 392.3L333.3 390.6L335.7 391.3ZM695.2 386.2L691 386.4L691.5 383.1L695.9 384.3ZM903.9 360.6L906.6 361.6L911.9 360.8L912.1 364.2L910.9 367.5L909.9 366.8L908 368.8L905.7 368.5L902 361.7L902.1 360.4ZM980.6 361L981.2 362.2L983.2 361L984 362.2L984 363.4L979.8 368L980.8 369.4L976.3 370.5L973.9 375.3L970.4 377.4L963 376.2L962.5 375.1L964 373L973.7 367L978 361.1L980 359.7ZM985 347.3L987 350.3L987.1 348.4L988.4 349.2L988.8 351.3L991 352.3L995.9 351.7L994.4 355.9L992.2 355.9L988.9 362L986.8 363.2L985.1 362L986.7 359.6L985.8 358.1L982.8 356.9L982.9 355.9L984.9 354.9L985.3 350.8L979.5 342.7L984.2 344.8ZM964.2 307.2L963.2 307.9L959.7 305.8L955.6 301.3L958.4 302.3ZM995.5 293.4L996.4 294.2L996 295.7L992.7 295.7L992.5 294.5L993.5 293.5ZM998.2 291.8L996.5 292.4L996.1 291.4L1000 289.7L1000 291.1ZM966.2 290.9L965.3 291.2L964.5 289.2ZM964.2 286.5L964.6 288.8L962.9 287.8L962.9 285.6ZM639 282.5L639.9 288.7L639.4 289.5L638.5 287.9L638 288.7L638.3 292L630.8 315.2L626.1 317.1L622.3 315.3L620.2 306.9L623.3 301.2L622.1 293.6L623.5 290.2L628.6 288.9L632.5 285.5L633 282.8L634.1 283.2L636.7 278.2ZM898.8 283.1L899.8 285.4L901.6 284.3L903.8 286.6L906.6 298L913.5 302.1L915.8 307.7L916.9 307.1L918 308.3L918.7 307.9L919.2 310.9L924.6 316.1L925.4 318.4L925.3 321.8L926.6 324.2L924.7 334.4L923.5 337L921.4 338.4L917.6 345.9L916.7 351L912 352.1L906.4 355.6L902.4 353.8L902.9 352.3L898.9 354.9L890.7 352.7L888.9 350.9L887.7 347.3L883.7 345.8L884.6 344.4L883.9 342.2L882.6 344.2L880.1 344.7L883 340.1L882.8 338L878.8 341.4L877.7 343.7L875.6 342.5L875.7 341L872.5 337.8L873 337.2L864.8 334L850.4 336L845.1 338.2L843.5 340.8L833 341.1L827.8 344.2L824 344.1L819.5 341.7L819.6 340.1L821.4 339L821.4 334.3L819.6 328.1L814.8 318.5L816.1 319.8L815.1 317.1L817.3 319.1L815 313.6L817.1 306L817.3 308.2L818.5 306.2L824.2 303L835.7 300.1L839.6 295.8L839.8 293.1L841.7 290.7L842.9 293.2L844.1 292.6L843.1 291.2L843.9 289.9L845.2 290.5L845.5 288.3L849.1 284.5L850.3 284.8L853 283.3L856.6 286.3L860.1 286.6L859.5 285L862.8 279.6L868.3 278.4L868.2 276.9L866.2 276L867.7 275.6L875.8 278.8L879.1 277.7L880.4 279.1L877.7 281.9L876.4 286.7L889.5 294.4L891.3 293.5L893.6 286.8L893.1 282.9L894.8 275.3L895.9 274.2L896.7 275.7L898.7 280.5ZM950.3 273.7L951.1 274.7L949.2 274.7L948.1 272.9ZM835.3 273L830.5 271.1L833.1 270.5L835.5 272.2ZM946.8 272L944 271.7L943.6 270.2ZM949.1 271.2L948.7 271.7L946.1 267.5L947 267.5ZM845.7 272.7L842.9 273L844.4 270.3L847.5 268.5L853.7 267.7L847.5 270.6ZM827.5 266.9L830.2 267.4L830.9 268.6L824.3 269.6L825.2 267.9ZM841.4 266.9L841 268.5L833.1 268.9L833.1 267.9L835.3 267.3L837.1 268.1ZM937.6 264.7L935.8 264.2L934.8 262.6ZM801.7 263.1L807.1 263.4L807.7 262.2L812.8 263.6L813.8 265.4L818 266L821.4 267.7L818.2 268.8L815.2 267.6L800.8 265.9L792.7 263.3L794.6 260.6L798 260.7L801.4 262.1ZM874.2 261.5L872.8 263.4L872.5 261.3L873.6 259.3ZM933 263.2L931 262.4L929.2 258.4L933.4 262.4ZM922.2 259.4L917.3 261.8L912 260.1L912.2 259.3L916.2 259.4L917.1 258L917.3 259.5L918.9 259.3L921.2 257.3L920.9 255.6L923.2 256ZM853.5 253.6L852.4 254.5L850.5 254L850 252.8L852.8 252.6ZM862.4 252.5L863.4 254.7L861.1 253.5L855.3 253.4L855.9 251.8ZM925.4 256.6L924.5 257.3L923.4 254.5L918.5 251.5L919.3 250.8L922.9 253ZM872.6 247L873.4 251.6L876.3 253.3L878.6 250.3L881.8 248.6L884.2 248.5L901.6 254.7L905.1 257.6L905.5 259.3L910.1 261.1L910.8 262.6L908.3 262.9L908.9 264.8L911.3 266.7L913.2 269.8L914.7 269.7L914.6 270.9L918.9 273.2L918.6 274L910.9 272.7L905.7 266.8L902.1 265.5L898 267.3L898.4 269.4L896.2 270.4L891.8 269.8L889.3 267.5L886.5 266.9L885.8 267.7L882.3 267.8L883.4 265.4L885.2 264.7L883.1 259.1L875.5 256.5L871.3 253.8L869.4 255.5L868.8 253.2L866.6 251.8L871.6 250.8L871.4 250L867.3 250L866.2 248.3L863.7 247.8L862.6 246.4L867.7 244.7L872.2 245.9ZM847.9 239.6L845.7 242.4L843.6 243L833.8 243L833.4 245.2L835.9 247.7L837.4 246.4L842.6 245.4L842.4 246.8L841.2 246.3L837.5 249.1L840.2 252.8L839.6 253.8L842.1 257.1L842.1 259L840.6 259.8L839.5 258.8L840.9 256.5L838.2 257.6L837.5 256.8L837.8 255.7L835.8 254L836 251.2L834.2 252.1L834.5 259.5L832.8 259.9L831.6 259.1L832.4 256.5L831.9 253.7L830.8 253.7L829.9 251.7L833.4 242L835.8 239.9L841.5 241.2L844.7 241L847.4 239ZM857.5 240.4L857.3 242.9L855.9 242.6L855.5 244.4L856.6 245.9L855.8 246.2L853.9 240.8L854.4 238.5L855.4 237.4L855.6 239L857.2 239.2ZM793.9 260.4L790.9 260.5L785 255.8L775.7 243.1L773.9 238.4L764.9 229.4L764.7 228L770.8 228.6L779.6 237.6L782.4 237.7L788.4 243.4L787.3 245.7L789.9 246.8L791.4 250.4L793.4 250.6L794.7 252.4ZM827.4 238.4L830.5 241.1L827.3 241.4L826.4 246L823.8 247.9L822.6 255.2L822.2 254.2L819.1 255.4L818 253.7L814.6 252.6L811.3 253.6L810.3 252.3L806.2 252.1L805.8 248.2L803 245L803 239.8L804.6 237.9L806.7 238.9L808.8 238.4L809.4 235.9L813.9 234.8L824.2 223.8L825.4 223.8L826.9 226.5L831.1 228.2L830.9 229.3L829 229.4L829.5 230.8L827.5 231.8L825.9 234.4L827.9 237.1ZM851 219.5L851.5 223.1L850.5 225.7L849.5 222.8L848.2 224.2L849.1 226.3L848.3 227.7L845.1 226L844.3 223.9L845.1 222.6L843.4 221.2L839.1 223.9L838.7 223L839.8 220.6L843 218.7L844 220L846.1 219.3L846.6 218L848.5 217.9L848.4 215.7L850.6 217ZM725.6 225.9L723.2 226.6L721.9 224.3L721.4 220.2L722.6 215.5L724.6 217.1L727.2 222.1L726.8 225.1ZM330.7 214.7L327.9 214.7L328.7 212.8L330.3 212.4ZM844.4 214.2L841.7 217.8L839.9 215.8L841.5 212.5L843.1 212.3L842.6 214.2L844.7 211.5ZM829.2 217L825.5 219.7L832 211.1L832.5 213.4ZM838.6 209.6L842 210.5L841.9 211.7L838.9 213.7ZM848.6 208.8L849.4 212L847.3 211.2L848 214L846.7 214.6L845.3 210.7L846.9 210.9L846.9 209.9L845.2 207.7L847.9 207.7ZM837.6 206.2L836.8 208.7L834.2 205.1L836.6 205.2ZM837 190.6L838.7 191.4L839.6 190.7L840.3 194.7L839.6 197L838 198L838.1 202.6L840.8 202.6L844.3 204.2L844.7 207.7L841.5 204.8L840.8 205.9L839 204.2L835.1 203.9L836.1 202L835.3 201.4L834.9 202.4L833.5 200.8L833 196.8L834.1 197.7L835.3 190.6ZM317.8 191.4L313.4 192.2L313.2 191L315.9 190.6ZM286.4 192.4L285.5 192.9L282.4 191.4L283.9 190.6L286.4 190.9L288.3 192.4ZM298.4 186.7L305.7 187.3L310.2 190.3L309.2 191.5L305.7 190.8L304.1 191.5L303.7 190.8L301.7 193.2L299 191.5L294.7 192L293.2 191.1L293.4 190.2L298.1 190.8L299.1 190.2L297.8 187.8L296.1 187.4ZM806.5 190.1L804.1 191.5L801.8 190.6L801.7 188.1L803.1 186.8L807.7 186.1L808.4 187.2ZM67.9 189L66.8 189L67.1 185.6L70 187.7ZM62.1 182.5L60.3 181.8L61 181.4ZM57.4 180.7L56.1 180.4L57.3 180ZM278.7 178.4L279.8 179.5L282.4 179.1L287.4 182.9L290 183.4L289.8 184.2L293.9 185.5L291.8 186.6L284 186.7L285.9 185.1L283 184.2L281.3 181.8L272.7 180L271.8 179.5L272.8 178.8L270.1 178.6L266.5 180.9L264 180.9L267.3 178.3L271.5 177.2ZM284.6 175.6L282.2 173.2L282.8 171.4L283.6 171.5ZM836.6 178.3L835.4 180.7L833.6 176.1L837.5 171.2L838.8 172ZM283.8 167.5L280.8 167.9L280.6 166.9L283.8 166.7ZM286.1 167.4L285.6 169.5L283.9 166.2ZM874 145.8L874.4 146.8L872.8 148.5L871.6 147.6L869.5 149.9L867.7 149.1L869.2 146L870.8 146.4L872 145.2ZM596 141.4L594.2 142.6L594.5 143.4L591.6 144.6L589.6 143ZM565.8 141.3L567.4 142.3L573 142.5L572.7 143.3L568.7 143.6L565.3 142.5ZM543.1 134.1L541.9 138.7L534.5 135.8L534.9 134.4ZM525.6 125.5L527.2 127.6L526.9 131.4L524.5 132.1L523.4 131.4L522.7 126.3ZM891.6 137.2L890.6 139.5L891 140.9L889.6 142.9L886 144.3L881.2 144.5L877.2 147.7L875.3 146.6L875.2 144.5L863.9 146.5L866.7 148.6L864.8 153.5L863 154.7L861.7 153.6L862.4 151L860.6 150.2L859.5 148.2L862.1 147.3L868.4 142.1L873.9 141.2L876.9 141.8L879.8 136.7L881.6 138.1L887.3 134.1L889 130.6L888.6 127.4L889.7 125.6L892.7 125L894.2 129L894.1 131.3L891.6 134.2ZM526.6 122.8L525.6 125L524.4 124.5L523.7 122.5L526.1 120.4ZM899.8 117L901.7 117.6L903.7 116.4L904.3 119.6L900.2 120.4L897.7 123.3L893.4 121.3L891.9 124.5L888.8 124.5L888.4 121.7L889.8 119.4L892.7 119.3L894.4 113.1ZM323.2 110.2L327.7 110.5L325.3 111.9L321.8 110.7L321.1 109.7L322.2 108.8ZM328.3 102.9L320.8 100.7L325.4 101.2ZM156.9 104.6L151 103.7L147.1 100.9L144.3 100.3L143.4 98.1L150.7 99.5ZM344.1 98.4L342.2 100.9L344 99.9L345.9 100.5L344.9 101.5L351.5 102.5L350.6 104.6L352.5 104.1L353.8 107.4L352.6 109.9L349.5 109.5L350.1 107.1L349.3 106.8L346.1 109.3L344.5 109.2L346.4 107.8L343.7 107.1L335.4 107.2L334.9 106.4L336.7 105.3L335.5 104.6L337.8 102.8L340.7 98.3L344.8 95.7L346.1 95.8ZM131.4 88.8L134 88.5L133.2 91.8L135.6 94.1L130.4 90.6L130.1 88.4ZM899 98.2L901.8 103.3L897.7 102.3L896 106.5L898.7 109.4L898.6 111.4L896.5 109.7L894.7 111.9L894.2 103.6L894.9 97.6L893.3 94.8L893.6 90.9L896.1 89.5L895 88.2L896.3 87.8ZM481.1 93.9L476.2 95.5L472.3 95.1L474.5 92.1L473.1 89.2L479 85.6L481.3 85.5L484.3 87.3L482.8 89.2L483.2 91.3ZM535.3 84.3L533.6 86.6L530.7 85L530.3 83.8L534.4 82.8ZM75 79.9L72.2 81L70.4 78.9L76.2 77.7L77.4 78.6ZM491.7 75.6L488.7 78.7L494.6 78.3L493.8 80.6L491.3 83.2L494.2 83.4L496.9 87.1L498.8 87.5L501.3 91.9L504.7 92.5L504.3 94.3L502.9 95.2L504 96.6L501.5 98.1L491.8 98.3L490 99.7L487.4 99.4L485.4 100.4L484 99.9L488 96.9L490.5 96.2L486.2 95.8L485.4 94.6L488.3 93.7L486.7 92.2L487.3 90.3L491.4 90.6L491.8 88.9L489.9 87.1L486.5 86.6L485.9 85.8L486.9 84.5L486 83.8L484.5 85.1L484.3 82.3L482.9 80.9L483.9 77.9L486.1 75.6ZM40.1 71.9L38.4 72.4L34.8 71.1L39.8 70.8ZM279.8 65.5L278.7 67L276.8 65.9L278 64.8ZM272.5 63.9L269.3 65.5L266.7 64.6L268.7 63.3ZM23 60.8L31.4 62.2L29.1 63.1L23.5 62.2ZM263.4 55.4L264 56.7L265.4 56.3L273.2 58.9L273.5 60.3L277.5 61L275 61.9L270.7 61.2L269.1 59.9L262.4 62.9L261.5 61.2L257.7 61.5L260.1 60.1L261.4 55.2ZM459.7 53.2L459.1 55L462.2 57L458.6 59.2L448.2 61.6L436.8 60.3L439.5 59L433.5 57.6L438.4 57.1L438.3 56.2L432.4 55.6L434.3 53.7L438.5 53.3L442.8 55.2L447.1 53.7L450.6 54.5L455.1 53ZM289.3 51.2L286.1 51.3L285.5 49.9L286.6 48.3L289.2 47.9L291.3 48.7L291.4 49.9ZM13.8 52.8L15.7 53.5L15.1 51.4L22.6 51.8L28.1 54.5L25.3 55.8L20.7 56.1L20.7 58.9L19.6 59.5L11.2 57.6L10.5 56.3L4.6 56.2L3 55.2L3.6 54.1L0.3 54.8L1.6 56.2L0 57.4L0 46L14.1 51ZM234.3 45.6L232.6 46.6L222.8 44.7L227.2 42.6ZM1000 40.6L997 40.8L996.5 39.9L1000 38.7ZM3.6 40.4L0 40.6L0 38.7L6.7 39.4ZM248.5 44.4L248.5 47.4L252.2 45.1L255.5 47L254.7 49.1L257.4 51L262.3 46.5L262.4 43.3L270.5 44L274.2 45.4L274.4 46.8L272.3 48.4L274.3 49.9L273.9 51.3L268.5 53.3L264.6 53.7L261.8 52.9L257.4 58L254.2 59.9L250.2 60.1L248 61.3L247.9 63.2L244.6 63.5L241.2 65.9L238.2 69.1L237 74.7L241.1 75.2L243.6 80L247.5 79.5L263.9 85.1L271.5 85.6L271 88.1L271.9 90.9L273.9 94.1L278 96.9L280.2 95.9L281.7 93L280.2 88.5L278.3 87L282.7 85.6L287.4 81.6L287.2 79.7L285.3 77.3L281.9 75.1L285.2 72.1L283 65L285 64.4L292.6 65.4L294.9 64.7L301.7 68.4L306.7 68.6L307.5 74.7L310.1 75.1L312.1 76.8L316.1 75.2L320.6 70.7L329.5 80.4L328.3 82.2L334.5 85.4L340.7 87.1L341.8 89.5L345.1 91L345.3 94.2L336.7 97.3L333.2 99.6L315.6 99.7L313.2 101.7L309.7 103L302.5 109.4L304.8 109L309.3 105.2L315.1 102.8L319.3 102.5L321.7 103.9L319.1 105.9L320.9 111.1L324.5 112.5L329.1 112.1L331.9 108.9L332.1 111L333.9 112L321.5 116.8L318.4 118.8L316.3 118.6L316.2 116.2L321 113.8L313.5 114.3L314 115.2L305.2 118.4L303.6 120.3L303.3 122.3L304.2 123.8L305.3 123.9L305 122.9L305.9 123.5L305.7 124.3L295.2 126.3L300.2 126.3L294.6 126.8L293.7 127.6L294.5 127.8L293.9 129.8L291.9 132L290.2 130.4L291.5 133.6L289.1 137L289.7 134.9L288.2 133.8L287.9 131.4L288 134.5L286.2 134.1L288.1 135L289.6 141.8L287.9 143.9L280.4 147.7L274.1 153.5L274.1 157.6L277.6 166.6L276.7 171.4L274.5 171.4L273 169.5L269.8 163.7L270.4 161.8L269.6 160.2L266.4 157.4L263.6 158.7L260 156.5L252.3 156.8L251.1 157.2L252.2 159.7L249.6 160.2L247.6 160.1L245.5 158.6L239.3 158.5L231.7 162.5L229.5 165.2L230.2 169.5L228.1 179.3L232.5 188.3L237.7 191.7L244.3 190L247.9 188.4L249.2 183.5L258.2 181.9L258.8 183.9L256.6 187.3L256 191.3L254.7 190.6L254.6 196.3L253 198.1L255.2 198.7L263.9 197.8L268.3 199.9L268.9 202.6L267.2 211.8L271.6 217.9L273.8 218.5L279 216.1L286.6 218.9L289.8 216.6L290.3 213.2L291.9 211.9L296.1 211.5L300.7 208L302.4 208.9L301.8 210.6L300.1 210.9L301 213.7L299.8 215.4L300.8 217.7L302 217.5L302.7 215.4L301.7 212.2L305.1 211.1L304.7 209.7L305.7 208.8L306.7 210.8L308.7 210.9L310.6 213.4L316 213.1L319.7 214.8L321.3 213.2L328.1 212.9L325.7 213.8L326.7 215.1L331 216.8L331.5 219.1L335.8 220.7L337.5 222.6L337.6 224.1L341.3 226.5L350.1 227.2L353.1 228.2L356.5 231.8L357.5 231.6L359.7 238.2L361.2 238.7L361.3 240.7L359.2 243L360 243.9L364.9 244.3L365 247.2L367.2 245.3L375.3 248.1L376.6 249.8L376.2 251.4L379.4 250.5L384.8 252L388.9 251.9L396.6 257.5L401.1 258.4L402.1 259.3L403.5 264.7L402.4 269.5L392.6 281.1L390.9 294.9L389.6 299.9L386.7 303.6L386.3 306.6L384 307.8L383.4 309.5L376 310.6L367.6 315L365.3 317.8L364.2 325.9L359.2 332.5L354.8 336.1L350.5 342.3L347.4 343.9L343.8 343.6L339.4 342.5L337.7 340.9L337.5 342.4L341 344.8L340.7 346.8L342.4 348.1L342.3 349.5L339.6 353.1L335.5 354.7L326.8 355L327.4 360.3L325.7 361.3L322.9 361.7L320.2 360.6L319.1 361.4L319.5 364.2L321.4 365.1L322.9 364.2L323.7 365.7L318.9 368.4L317.9 372.8L315.3 372.8L313.1 374.2L312.3 376.4L315 378.5L317.7 379.1L316.7 381.6L313.4 383.3L311.6 386.6L307.9 389.1L308.8 392.1L310.7 393.7L307.1 393.6L303.2 395.3L302.8 398L298.5 397.1L291.8 393.5L290 383.2L291.2 380.4L294.1 378.2L289.9 377.4L292.5 374.9L293.5 370.1L296.6 371.1L298 365.2L296.1 364.4L295.3 368L293.5 367.6L295.3 358.2L296.6 356.2L295.6 350.2L296.8 350.1L301.6 336.6L301.4 326.4L303 322.9L305.3 305L305.1 300.3L304.5 296.3L301.7 294.6L301.5 293.4L288.9 285.7L287.7 283.3L288.2 282.5L278.4 264.3L274.3 261.3L275.2 260L273.9 257.2L278.4 251.3L277.8 250L276.8 251.4L275.1 250.1L275.2 246.7L276.2 246.3L277.5 241.5L281 239.7L280.6 238.8L281.6 238.6L282.1 236.1L283.5 235.9L285.8 232.6L284.7 231.9L284.8 224.5L282.7 222.1L282.1 220.6L282.8 219.8L280.2 217.9L279 218.1L276.4 220.5L277.8 222L275.3 223L274.8 221.3L273.6 221.6L273 220.4L269.9 220.5L268 219.5L267.7 217.7L264 214.8L263.6 216.3L262.1 215.2L262.1 212.8L261.3 212.4L261.9 211.9L256.5 206.7L257.5 206.4L257 205.5L254.2 205.9L246.6 203.7L240.7 198.9L237 197.2L231.8 198.8L212.5 191.2L207 186.5L206.3 185.1L207.2 184.8L207.6 182.3L205.5 178.4L198.9 171.5L196.5 170.3L196.4 167.9L188.3 160.7L185.7 154.3L183.7 153.2L181.2 152.5L181.5 157.2L190 167.2L192.6 174L194 174.1L196.1 176.7L194.4 178.2L193.6 176.5L188.4 172.7L188.1 169.1L180.4 164.2L181.7 164.1L182.9 161.8L179.1 158.9L174.2 148.9L170.8 146.1L164.9 144.5L154.4 128.1L155 123.3L154.1 121.1L155.8 113.2L153.6 105.5L158 106L159.5 108.7L160.2 107.9L158.8 103.2L151 99.1L146 98L144.5 95.4L144.9 93.7L141.3 92.4L140.8 90.1L137.5 88L137.4 86.6L133.4 84.6L132.6 82.1L129.1 79.8L127.6 77L120.5 76.8L111.5 73L104 71.4L100.1 71.7L91.3 69.1L88.3 69.7L88.8 71.7L78.6 74.1L78.2 72.4L79.4 69.6L82.4 68.7L81.6 68L72.2 73.5L74.2 74.9L71.6 77L65.8 79.1L65.1 80.3L60.8 81.8L59.9 83.2L42.3 87.7L41.8 87.2L50.5 83.4L54 83.1L61.9 78.6L63.8 74.8L59.7 75.1L58.2 76.2L56.4 74.7L55.6 75.8L54.6 74.3L50.1 75.5L50.3 72.7L48.6 71.7L44.9 72.2L40.7 70.2L40.7 68.6L38.6 67.4L42.9 62.6L47 62.9L49.3 61.5L53.4 60.9L52.9 59.6L51.3 59L53.4 57.9L47.9 59.2L41.8 58.9L37.7 58.2L33 55.4L43.1 52.8L45.4 52.8L45 54.2L50.9 54.1L40.6 48.6L36.8 47.7L38.3 46.2L43.2 46.1L46.8 44.8L47.4 43.4L50.3 42L60.8 40.6L65.1 39.1L69.3 39.7L71.3 41L77.2 40.6L77 41.3L81.3 41.8L101.1 42.6L120.8 46.2L126.6 44.1L130.8 44.4L139.5 42.4L141.4 43.6L143.4 43L144.1 41.6L150.7 44.5L154.4 42.5L154.8 44.7L159.2 43.4L162.6 43.6L173.3 45.8L179.9 46.1L183.6 47.6L179.7 49L184.7 49.6L194.6 48.8L197.6 50.5L200.6 49.1L197.7 47.8L199.5 46.9L205.1 46.4L210.2 48.7L213.3 48.5L218.2 49.7L226.5 49.4L226.2 47.6L228.7 47.1L233 48L233 50.8L234.8 48.5L237 48.6L238.2 45.7L232 42.7L232.2 39.6L235.5 37.5L242 39.2L245.8 42.5L243.3 43.9ZM182.9 34.1L181.5 35.4L187.7 34.5L191.5 36L194.7 34.5L197.2 35.5L199.5 38.3L200.9 37.1L198.9 34.1L204.1 34.2L207.2 35.3L209.8 40.2L219.5 42.9L219.2 44.2L214.6 44.4L216.4 45.5L215.5 46.6L205.7 45.4L185.2 47.2L183.7 45.8L177.5 45.4L174.1 43.1L187.7 41.9L172.5 41.5L171 40.4L177.5 39.2L168.3 38.5L172.6 35.2L180 33.5ZM209.7 33.2L207.3 35.1L202.9 33.1ZM287.9 34.1L288.2 34.9L279.2 35.1L275.3 33.4L275.5 32.4L276.8 32.2L283.2 32.5ZM259.5 33.9L261.7 35.7L264.3 33.4L271.3 32.2L276.1 35.2L275.7 37.1L283.8 35.1L293.8 37.9L294.2 39.2L299.3 38.5L302.2 40.4L311.3 42.7L314 45.3L308.9 46.7L319.8 49.2L323.8 51.8L328.2 52L327.3 54L322.4 57.3L314.7 53.4L311.1 53.7L310.7 55.4L318.6 59.1L320.4 61.9L319.4 64L308.9 60.9L316.2 66.1L302.7 63.3L299.3 61.9L300.3 61.1L292.1 58.3L292.2 59.1L284.1 59.5L281.8 58.6L283.6 56.4L294.6 56L293.6 55L298.2 50.8L297.4 49.5L292.1 47.1L286.5 46.2L288.3 45.4L280.7 42.5L274.2 43.7L253.7 41.8L251.4 40.8L254.3 39.5L250.3 39.5L249.4 36.6L251.6 34L254.4 32.9L261.6 32.1ZM221.2 32L229.5 32.2L230.2 33.1L227.6 34.4L231.8 35.7L231.3 38.2L224.1 39.1L215.3 35.8L215.3 34.9L221 35.2L217.9 33.4ZM898.9 33.8L888.5 33.3L894.6 31.9ZM241.1 35.1L238.1 37.2L235 37.1L233.3 33.1L237.5 31.1L248.6 31.9L244.4 34.5ZM165.4 39L158.1 40.4L156.6 39.2L150.2 37.6L155.7 32.5L153 30.7L173.5 31L179.1 33L168.8 35.8L165.4 37.8ZM918.7 28.4L915.5 29.6L905.9 28.2L906.6 27.2ZM240 28.7L238.5 29.8L231.1 28.9L232.5 27.6L236.5 26.8ZM903 27.1L900.8 29.2L886 29.8L880.5 27.9L882 25.9L885.6 25.4ZM226.4 23.7L228.5 25.1L227.3 28.7L222.8 29L219.8 28.5L219.8 26.8L215.3 27.1L215.1 24.8ZM199.4 25.2L200.5 26.2L205.9 25.9L206.4 27.3L204.7 28.7L184 30.4L183.7 29.5L189.5 28.2L173 28L179.4 24.4L197 27.3L193.1 24.6L195.6 23.5L198.5 23.9ZM659.8 40.9L649.1 40.8L648.4 39.5L643.3 38.8L642.9 37.2L645.8 36.6L645.7 35L651.2 32.6L648.6 32.3L655.3 29.7L654.5 28.4L669.9 25.1L689.3 23.1L691.3 24.2L671.1 27.9L662.4 30.6L653.9 36.2L654.5 38.6ZM237 22.7L245.5 23.6L247.9 24.5L247.3 25.6L252.3 26.9L274.6 26.6L277.6 27.7L278.2 28.9L272.4 30.3L255.1 30.4L243.3 29.1L242 26.1L239.2 24.9L230.2 23.6L231.3 22.5ZM177.2 21.1L176.8 23.3L174.7 24.3L162.5 26.1L158.7 25.5L169.2 21.5ZM797.1 23L797.9 24.4L808.5 23.8L817 26.2L816.3 27.7L803.9 31L811.4 32.1L813.9 31.6L815.4 33.4L821 32.2L829.9 32.7L830.6 34.1L842.2 34.5L842.4 32.3L852.7 32.8L857.2 34.3L858.5 36.1L856.8 37.3L860.3 39.6L864.7 40.7L867.4 37.7L871.8 39L876.6 38.3L881.9 39.1L884 38.3L888.5 38.7L886.5 36.1L890.2 34.8L915.3 36.7L917.6 38.4L924.9 40.6L941.7 40.5L944 41.7L943.6 43.8L947.1 44.6L966.2 44.2L971 46.7L974.5 45.8L972.2 44L973.5 42.7L988.1 43.4L996.1 44.7L1000 46L1000 57.4L996.4 58.7L992.8 58.5L995.3 60L998.6 64.3L997.9 65.1L992.7 64.4L982.4 66.9L974.2 70.7L973.1 72L969.2 70L961.9 72.3L960.7 71.2L958 72.4L954.3 72L950 76.7L950.1 77.9L953.3 78.5L952.9 82.7L950.4 82.8L949.2 85.2L950.3 86.4L945.5 87.9L944.5 91.2L940.4 91.9L939.5 94.8L935.5 97.4L931.8 84.9L933.1 80.9L935.4 79.2L935.6 77.9L939.9 77.2L954.6 68.4L956.9 64.4L953.5 64.6L951.8 67L944.8 70.1L942.5 66.6L935.3 67.6L928.4 72.4L930.7 74.1L920.2 75.2L920.4 73.1L916.1 72.7L912.6 74.1L904.1 73.6L895 74.4L875.4 86.8L879.7 87.1L881.1 88.9L883.8 89.6L885.6 88.1L888.6 88.3L892.6 91.5L892.7 93.9L890.5 96.8L889.1 104.8L883.9 110.9L874.6 119.3L870.9 120.9L869.2 121L867.4 119.6L861 123.4L860.3 126.5L854.3 129.7L853.8 131.3L856.5 133L859.6 138.2L859.6 141.5L858.6 143.1L851.3 145.1L851.6 141.4L850.3 138.4L852.4 137.9L850.5 135.5L849.1 134.9L848 135.7L846.4 134.4L847.8 132.8L848.1 130.3L845.2 129.2L836.3 132.2L837.7 130.8L837.2 129.7L839.4 127.8L837.9 126.3L830.6 131.1L827.9 131.3L826.5 132.6L827.9 134.6L830.2 135L830.3 136.3L832.5 137.2L835.6 135.1L839.9 136.3L840.3 137.8L836.4 138.6L831 143.6L834 145.2L838.6 152.8L838.6 154.9L836.8 155.7L839.1 158.1L838 162.8L836.5 163L829.6 173.3L821.9 178.4L818.8 178.7L817.1 180L816.1 179L814.6 180.5L807.7 182.3L806.8 185.4L805.2 185.5L804.5 183.4L805.2 182.3L801.5 181.4L796.4 184.3L794.1 187L793.5 189L798.2 195.8L802.4 199.9L803.7 205.2L803.3 210.2L792.1 219L791.1 217.2L791.9 215.2L787.5 213.2L785 208.7L782.5 207.4L780.1 207.5L780.5 205.2L778 205.2L775.6 217.2L777.4 217.3L779.1 222.4L786 227.8L787.2 229.7L787.5 235.7L789.5 240L787.6 240.2L781.6 235.8L778.3 228.4L778 225.1L773.6 219.6L773.2 221.3L772.6 219.7L774.3 210.9L773.4 209.2L773.6 206L769.9 195.1L764.9 198.6L761.6 197.7L762.6 194.1L762 191.5L759.8 188.1L760.2 187.1L758.6 186.7L756.6 184.4L753.9 178.4L751.4 178.3L750.8 181.1L747.3 180.4L746.9 181.5L741.6 182L741.8 184.2L740.3 185.9L736.3 187.8L728.3 194.9L728.3 196.2L723.1 198.1L722.3 200.3L723 206.4L721.8 209.1L721.8 214L720.4 214.1L719.1 216.3L720 217.2L717.4 218.1L715.4 220.8L712.8 218.2L708 207.1L706.8 201.8L704.3 197.8L701.8 182.4L697.7 184.2L695.8 183.8L692.1 180.3L693.5 179.3L692.6 178.2L687.3 175L684.4 170.8L670.8 171.8L659.4 169.9L658.3 166.4L656.9 165.9L652 167.8L643.1 163.8L639.2 157.2L637.7 157.7L635.9 156.8L634.9 157.9L633.3 157.7L635.6 164.3L639.3 167.2L639.2 169.3L641.1 172.7L641.7 169.1L643.3 169.7L642.7 173.1L643.9 174.8L650 174.5L656.6 168L656.7 172.2L657.9 174.2L663.1 176.1L666.1 179.7L662.5 185.1L660.6 185.6L660.3 189.4L657.2 190.4L656.3 192.4L653.5 193.1L653.5 194.3L645.5 196.7L644.9 199L637.7 201.5L635.2 203.5L626.7 205.6L625 207.3L620.8 207.4L618.3 200.1L618.5 195.6L613.7 187.8L608.7 182.6L608.5 178.9L606.9 175.8L604.1 174L602.6 170.3L597.6 163.2L596.2 163.2L597 159.1L594.2 164.4L590.1 158.1L594.7 168.7L599.1 175.1L598.7 177.4L602.4 180.6L604.1 190.3L606.7 192.1L609.1 198L620.3 208.1L620.2 209.3L618.7 210L622.5 213.7L623.9 213.7L642 209.2L641.8 213.2L637.4 224.2L632.6 231.6L629.3 235.5L619.8 242.8L615.5 248.5L611.8 251L608.9 257.1L607.8 262.2L609.6 263.3L608.9 268L612.4 274.5L613.3 285.8L609.6 291.6L603.9 294.1L596.6 300.4L596.4 302.4L598.8 307L598.3 311.1L598.9 311.6L597.3 313.8L590.5 317.4L591.4 318.8L589.5 326.1L578.4 337.6L571.6 341L562.7 340.7L554.5 343.5L551 341.5L549.8 337.2L550.7 336.6L550.6 334.4L542.3 321.3L539.6 307.1L532.8 295.5L532.7 288.9L534.7 282.5L537.9 278.2L538 274.4L535.8 269.9L536.8 268.2L533.1 258.1L524.4 246.9L527.2 234.9L526.1 233L524.9 232.5L523.6 230L516.4 231.4L512 225.7L505.2 226.1L494.5 230.2L487.1 228.9L479.1 231.2L475 229.8L465.5 222.8L464 221.3L463.2 218.1L458.8 212.5L453.9 208.8L453.6 204.7L451 201.4L454.3 197.4L455.1 191.8L454.8 186.1L452.6 183.5L452.9 180.9L454.8 178.7L455.6 175.7L458.1 173.4L459.9 168.4L464.9 163.3L467.5 163L473.4 157.9L472.7 154.3L474.2 150.3L480.8 145.9L483.5 141.2L494 142.9L504.1 138.7L514.8 138.4L517.4 137.3L523.4 137.8L526.4 136.6L528.4 136.9L528.3 138.4L530.8 137.9L529.4 139.3L530.4 141.3L530 143.8L528.2 145.3L528.7 146.8L530.2 146.9L531.9 148.7L542.3 151.2L543.6 153.7L553 156.9L555.7 154.8L555.1 152.6L555.9 151.3L559.8 149.5L563.6 150.1L564.5 151.4L569.2 152.2L569.9 153.2L573.6 153.1L580.3 155.2L586 153.2L588 153.6L588.8 155L589.4 154.1L593.8 154.9L596 153.2L600 144.4L600.4 141L599.4 139.7L600.4 138.6L596.4 138.2L594.5 139.8L590.3 140.2L588.1 138.6L585.1 138.5L584.4 139.7L582.5 140.1L579.8 138.5L576.8 138.6L573.1 134.1L574.5 131.9L572.7 130.5L575.8 127.8L580.1 127.7L581.2 125.5L586.5 125.9L593.1 123.2L597.7 123.2L606.5 126.3L612.1 126.1L615.4 124.6L615.8 123.4L615.1 121.4L601.9 114L603.9 113.5L606.2 111.1L604.6 110L608.7 108.2L597.1 111L597.3 112.8L601.5 113.3L600.9 114.3L594.1 116.5L592.6 115.9L593.2 114.6L590.2 113.7L593.3 112.2L592.5 111.6L588.2 110.8L588 109.8L585.4 110.1L582.3 114.6L580.1 114.9L579.3 118.4L576.9 121.6L578.1 124.3L580.5 125.3L580 126L576.7 126.1L573.2 128.6L572.4 126.6L569.2 126.3L565.9 127L567.8 128.6L566.4 129.1L564.8 129.1L563.4 127.6L562.9 128.3L564.9 131.3L563.8 132L566.7 134.1L566.8 135.7L564.2 135L565 136.4L563.3 136.7L564.3 139.3L562.5 139.3L560.2 138L558.7 133.8L553.9 128.3L554.3 124.1L544.5 118.9L542.2 116.8L541.4 114.4L539.6 114L538.8 115.2L537.9 114.3L538.7 113L536.5 112.6L534.2 113.6L534.1 115.8L535 117.3L542.1 123.4L544.2 123.4L544.9 124L544.1 124.6L551.3 128.5L550.8 129.5L546.9 127.7L545.7 129.6L547.7 130.6L547.4 132.1L546.2 132.3L544.7 134.8L543.6 135L544.7 132L542.8 128.9L533.6 124.1L529.2 120.6L528.3 117.8L524.7 116.5L518.1 120L512.7 119.3L508.6 120.2L508.4 123.6L505.8 125.5L502.3 126.1L499.2 131L500.3 132.6L498.1 135.8L496 136.3L494 138.5L487.9 138.5L485.1 140.6L483.7 140.4L481.9 137.8L475.3 138L475.4 134L473.5 132.6L475.6 126.8L475 121.6L473.9 120.3L477.8 118.3L494.7 119.2L496.2 117.5L496.7 111.8L491.8 107.3L487.5 106.2L487.2 104.1L490.8 103.5L495.5 104.2L494.6 101L497.3 102.2L503.7 100L504.6 97.6L510.6 95.7L513.1 91.5L519.7 89.7L522.6 90.2L524.4 88.8L522.6 84.5L522.5 81.6L523.7 80L529.4 78.2L528.5 80.6L530.3 81.8L526.8 84.7L527.6 87.2L530.4 87.8L530.4 88.8L534.8 87.5L539.2 89.6L549 86.4L554.6 87.6L555.2 86.4L559.1 85.5L558.6 80.9L559.9 79.1L562.6 78.1L564.8 80.2L567 80.2L567.9 76.3L565.1 75.6L564.8 74L571.8 72.8L577.7 73.2L580.9 71.6L578 70.2L563.5 72.1L559.2 69.6L559.8 66.8L558.5 64.2L559.8 62.5L570.6 57L570.3 55.8L566.4 54.4L561.6 55.3L558.9 57.3L559.4 59L549.6 63.8L547.6 67.8L552.2 71.4L549.6 74.7L546.7 75.3L544.1 82.8L540.7 82.6L539.2 84.8L536 85L530.6 74.9L528.8 73.2L523.3 76.5L519.6 77.2L515.7 75.7L513.9 66L529.2 58.8L541 49.3L553.3 43.5L564 42.4L568.2 40L578.2 39.6L586.9 41.7L583.3 42.5L586.4 44.3L589.3 43.3L611.9 48.9L614.1 50.3L614.2 52.2L611.2 53.7L606.6 54.5L592.2 52.7L596.7 54.8L597.1 59L602.8 60.6L603.2 59.2L601.4 58L603.3 56.9L610 58.7L612.3 58L610.5 55.9L616.9 53.1L622.1 54.3L623.7 52.3L621.4 50.6L622.7 48.9L620.7 47.1L628.5 48L630.1 49.6L626.5 50L626.6 51.6L628.7 52.6L633 51.9L633.7 50.1L649.2 46.3L651.3 46.4L648.6 48.2L652 48.5L663.3 46.2L666.5 47.9L669.7 46L666.8 44.4L668.2 43.4L676.4 44.3L690.3 48.5L692.2 47L689.3 44.8L685.9 44.6L686.8 43.2L685.3 40L690.4 37.5L692.2 34.8L701.6 35L702.2 36.6L699.6 39L701.3 39.9L702.2 41.9L701.6 45.8L704.6 47.6L698 53.5L701.2 54L705.3 52.2L708.5 49.4L706.9 47.8L708.2 45.9L705.1 45.7L704.4 44.1L706.7 41.2L703.1 38.9L708 36.9L707.4 34.9L708.8 34.8L710.2 36.4L709.1 39.2L712.1 39.7L710.8 37.6L715.5 36.5L721.3 36.3L726.4 38L723.9 35.6L723.6 32.5L741.2 31.7L738.9 30.2L742.1 28.3L758.1 26.4L759 25.7L768.6 26L774.8 24.5L779.9 24.6L783.3 22.1L789.9 20.9L794.6 21.9L790.8 22.6ZM636.4 125.3L637.8 127.4L640 128.3L637.7 128.5L635.7 132.4L636.7 135.9L641.2 138L649.5 137.7L649.7 132L647.5 131L648.2 129.1L646.4 128.9L647 126.5L649.6 127.2L652 126.3L649.2 122.9L647 123.6L646.7 125.7L645.8 121L642.6 120L639.7 115.8L642.4 116.1L642.5 114L647.3 113.9L647.3 109.4L642.2 108.8L636.4 110.7L635.1 112.4L632.4 112.8L629.7 115.8L632.2 118.5L631.9 120.4ZM239.3 21.4L232.9 21.3L232.1 20.5L237.7 20.6ZM193.9 20.9L188.7 21.8L184.6 20.8L190.9 19.6L194.8 20.1ZM568.7 20.5L562.5 21.7L557.6 21L559.5 20.3L557.8 19.3L563.6 18.8L564.7 19.8ZM195.4 18.3L187.4 18.9L190.3 17.6ZM233.8 19.9L229.7 20.5L227.4 19.8L226 17.6L234.6 18.9ZM222.1 19.1L223.1 20.3L207.8 19L210.5 18.1L207.2 17.4L207 16.3L219.9 17.8ZM791.9 19.2L776.2 20.3L781.3 16.5L783.6 16.2L792.7 18ZM550.7 15.2L559.8 17.3L552.9 18.5L551.3 20.6L548.9 21.1L547.6 23.5L544.2 23.6L538.2 21.8L540.7 20.8L531.2 17.6L529 15.3L536.6 14.3L538.1 15.3L542.1 15.3L543.1 14.3L547.2 14.2ZM570.7 13.2L576.1 14.2L572 15.7L564 16.1L555.8 15.6L548.2 13.4L556.8 12.6L560.9 13.3L563.7 12.4ZM642 12.8L632.2 14.3L629.2 13.6L630.8 12.7L624.6 12.6L634.2 12.1L634.8 12.9L639 11.7L643.1 12.3ZM777.6 17.5L763.8 17.1L759.2 16L757.1 13.9L753.3 13.4L766.5 10.7L778.3 15ZM258.3 15.3L261.6 16.2L252.7 19.2L247.8 19.4L242 19.1L239 17.9L239.1 16.9L241.3 16.1L236.2 16.1L231.4 13.9L235.2 11.7L238.1 11.5L236.8 10.9L243.3 10.7L246.9 12.3L256.1 13.4ZM309.7 5.4L323.1 6L328.2 6.8L328.1 7.6L312.1 10L318.1 10L307 12.6L302.3 14.9L286.4 16.3L290.2 16.6L288.3 17.1L290.6 18.6L278.4 22.3L283.6 22.9L283.6 23.6L276.2 25.3L251.4 24.4L251.1 23.1L256.2 22.4L254.8 20.4L264 21.4L260.2 19.6L255.7 19L262.8 17.2L263.6 16.2L259.7 15.1L258.5 13.6L268.3 14L272.6 13L256.7 12.9L251.8 11.9L245.6 8.9L262.5 6.7L268.9 7.7L271.1 6.1L279.7 5.4ZM424.7 4.2L442.1 6.5L437 7.6L412.8 8.5L422.6 8.2L431 9.2L436.4 8.3L438.7 9.4L435.6 11L456.2 8.9L464.5 9.4L466.1 10.6L453.2 13.3L444.3 13.8L450.7 14L445.3 17.9L445.4 21.1L448.7 23L439.8 24L444.9 25.5L445.6 28L442.6 28.2L446.2 30.7L440 30.9L443.2 32.1L442.3 33.1L434.5 33.5L438 35.5L438.1 36.7L432.6 35.6L431.1 36.3L438.5 38.8L439.6 41.1L434.6 41.6L429 38.9L430 40.8L426.8 42.4L437.9 42.6L422.9 47.4L411.7 48.4L405 52.5L399 54.5L389.4 56L387 57.8L387 59.8L385.6 61.7L381.1 64L382.2 66.2L379.5 71.4L375.6 71.6L371.5 69.2L365.9 69.2L356.6 61.3L354.8 56.8L350.9 54.2L351.9 52.1L350.1 51.1L352.8 47.7L357 46.6L358.7 43.2L351.5 45.1L348.1 44.1L347.9 42.2L349 40.6L357.2 41.4L350 38.6L344.9 38.3L348 35.6L340.8 29.5L337.2 28.4L337.3 27.2L329.8 25.5L309.7 25.6L301.7 22.9L314.5 21.9L296.4 19.9L296.8 18.8L317.5 16.1L318.5 15L311 14L327.1 10.5L326 9.3L341.1 8.1L349.6 8L352.7 8.9L360 7.3L376.3 9.6L369.7 8L370.1 6.8L379.4 5.1L389.2 5.2L392.7 4.2L402.5 3.9Z" fill="#f4f4f2" fill-rule="evenodd" stroke="#d7d7d3" stroke-linejoin="round" stroke-width="0.7" vector-effect="non-scaling-stroke"/>
</svg>
